<svg width="17" height="17" viewBox="0 0 17 17" fill="none" xmlns="http://www.w3.org/2000/svg">
<path d="M2.125 4.95817C2.125 4.58245 2.27426 4.22211 2.53993 3.95644C2.80561 3.69076 3.16594 3.5415 3.54167 3.5415H13.4583C13.8341 3.5415 14.1944 3.69076 14.4601 3.95644C14.7257 4.22211 14.875 4.58245 14.875 4.95817V12.0415C14.875 12.4172 14.7257 12.7776 14.4601 13.0432C14.1944 13.3089 13.8341 13.4582 13.4583 13.4582H3.54167C3.16594 13.4582 2.80561 13.3089 2.53993 13.0432C2.27426 12.7776 2.125 12.4172 2.125 12.0415V4.95817Z" stroke="white" stroke-linecap="round" stroke-linejoin="round"/>
<path d="M2.125 4.95801L8.5 9.20801L14.875 4.95801" stroke="white" stroke-linecap="round" stroke-linejoin="round"/>
</svg>
