<svg width="14" height="16" viewBox="0 0 14 16" fill="none" xmlns="http://www.w3.org/2000/svg">
<path d="M12.4011 9.67606C12.908 8.72472 13.1721 7.66294 13.17 6.58499C13.17 2.94814 10.2218 0 6.585 0C2.94815 0 1.01531e-05 2.94814 1.01531e-05 6.58499C-0.00272288 8.13839 0.546387 9.64227 1.54942 10.8284L1.55717 10.8381L1.56414 10.8459H1.54942L5.45703 14.9944C5.60188 15.1482 5.77665 15.2707 5.9706 15.3544C6.16454 15.4382 6.37356 15.4814 6.58481 15.4814C6.79605 15.4814 7.00507 15.4382 7.19902 15.3544C7.39296 15.2707 7.56773 15.1482 7.71258 14.9944L11.6206 10.8459H11.6059L11.6121 10.8385L11.6128 10.8377C11.6407 10.8044 11.6685 10.7708 11.6961 10.737C11.9649 10.4069 12.201 10.0518 12.4011 9.67606ZM6.58694 9.10239C5.97054 9.10239 5.3794 8.85753 4.94354 8.42167C4.50768 7.98582 4.26282 7.39467 4.26282 6.77828C4.26282 6.16188 4.50768 5.57074 4.94354 5.13488C5.3794 4.69903 5.97054 4.45416 6.58694 4.45416C7.20333 4.45416 7.79448 4.69903 8.23033 5.13488C8.66619 5.57074 8.91105 6.16188 8.91105 6.77828C8.91105 7.39467 8.66619 7.98582 8.23033 8.42167C7.79448 8.85753 7.20333 9.10239 6.58694 9.10239Z" fill="white"/>
</svg>
